HIERARCHY
ROOT Hips
{
	OFFSET -32.860001 56.121803 44.745396
	CHANNELS 6 Xposition Yposition Zposition Zrotation Xrotation Yrotation
	JOINT Chest
	{
		OFFSET -0.637402 0.831600 5.390099
		CHANNELS 6 Xposition Yposition Zposition Zrotation Xrotation Yrotation
		JOINT Chest2
		{
			OFFSET 0.000000 0.000000 4.429901
			CHANNELS 6 Xposition Yposition Zposition Zrotation Xrotation Yrotation
			JOINT Neck
			{
				OFFSET 0.000000 0.000000 10.301395
				CHANNELS 6 Xposition Yposition Zposition Zrotation Xrotation Yrotation
				JOINT Head
				{
					OFFSET 0.000000 0.000000 2.173897
					CHANNELS 6 Xposition Yposition Zposition Zrotation Xrotation Yrotation
					End Site
					{
						OFFSET 0.000000 0.000000 8.298004
					}
				}
			}
			JOINT LeftCollar
			{
				OFFSET 2.142401 -0.572701 5.717800
				CHANNELS 6 Xposition Yposition Zposition Zrotation Xrotation Yrotation
				JOINT LeftShoulder
				{
					OFFSET 5.674000 0.000000 0.000000
					CHANNELS 6 Xposition Yposition Zposition Zrotation Xrotation Yrotation
					JOINT LeftElbow
					{
						OFFSET 0.000000 0.000000 -12.238701
						CHANNELS 6 Xposition Yposition Zposition Zrotation Xrotation Yrotation
						JOINT LeftWrist
						{
							OFFSET 0.000000 0.000000 -10.253700
							CHANNELS 6 Xposition Yposition Zposition Zrotation Xrotation Yrotation
							End Site
							{
								OFFSET 0.000000 0.000000 -2.173901
							}
						}
					}
				}
			}
			JOINT RightCollar
			{
				OFFSET -2.882599 -1.580101 6.695801
				CHANNELS 6 Xposition Yposition Zposition Zrotation Xrotation Yrotation
				JOINT RightShoulder
				{
					OFFSET -4.235600 0.000000 0.000000
					CHANNELS 6 Xposition Yposition Zposition Zrotation Xrotation Yrotation
					JOINT RightElbow
					{
						OFFSET 0.000000 0.000000 -10.709900
						CHANNELS 6 Xposition Yposition Zposition Zrotation Xrotation Yrotation
						JOINT RightWrist
						{
							OFFSET 0.000000 0.000000 -11.716801
							CHANNELS 6 Xposition Yposition Zposition Zrotation Xrotation Yrotation
							End Site
							{
								OFFSET 0.000000 0.000000 -2.173901
							}
						}
					}
				}
			}
		}
	}
	JOINT LeftHip
	{
		OFFSET 2.279499 0.210400 -2.475502
		CHANNELS 6 Xposition Yposition Zposition Zrotation Xrotation Yrotation
		JOINT LeftKnee
		{
			OFFSET 0.000000 -0.000004 -20.742800
			CHANNELS 6 Xposition Yposition Zposition Zrotation Xrotation Yrotation
			JOINT LeftAnkle
			{
				OFFSET 0.000000 0.000000 -16.666000
				CHANNELS 6 Xposition Yposition Zposition Zrotation Xrotation Yrotation
				End Site
				{
					OFFSET 0.000000 -8.310898 0.000000
				}
			}
		}
	}
	JOINT RightHip
	{
		OFFSET -1.961899 0.232300 -2.727402
		CHANNELS 6 Xposition Yposition Zposition Zrotation Xrotation Yrotation
		JOINT RightKnee
		{
			OFFSET 0.000000 -0.000004 -20.526800
			CHANNELS 6 Xposition Yposition Zposition Zrotation Xrotation Yrotation
			JOINT RightAnkle
			{
				OFFSET 0.000000 0.000000 -16.867300
				CHANNELS 6 Xposition Yposition Zposition Zrotation Xrotation Yrotation
				End Site
				{
					OFFSET 0.000000 -7.186401 0.000000
				}
			}
		}
	}
}
MOTION
Frames: 8
Frame Time: 0.041667
13.192608 50.788506 39.482487 751.184642 21.844693 -13.225308 -0.637409 0.831594 5.390095 -29.984974 33.846483 13.043910 -0.000000 -0.000002 4.429901 13.905197 -5.802176 -0.033470 -0.000008 -0.000008 10.301391 349.940180 20.086866 -5.515545 -0.000004 0.000005 2.173898 -359.818791 3.606703 0.542903 2.142391 -0.572708 5.717798 -18.800212 10.944454 -6.733085 5.674006 -0.000001 0.000006 119.637102 182.126762 96.342373 -0.000005 -0.000004 -12.238698 219.562168 -519.127435 -153.038202 0.000006 0.000007 -10.253708 -124.236592 20.891146 -49.021552 -2.882602 -1.580102 6.695791 9.734653 15.421428 -18.597540 -4.235598 0.000006 -0.000004 20.208486 6.398794 92.557191 0.000001 0.000007 -10.709899 -22.924408 -23.400836 -21.803029 -0.000003 0.000003 -11.716806 -275.409319 20.716251 63.229165 2.279492 0.210397 -2.475505 433.865364 -44.047412 64.854347 -0.000005 -0.000010 -20.742802 -148.223834 1.037032 70.177762 -0.000009 0.000010 -16.666000 77.494616 11.816321 40.263480 -1.961903 0.232299 -2.727406 -452.382061 -44.462885 -39.400312 0.000005 -0.000008 -20.526806 616.484077 115.901685 -170.534865 -0.000002 0.000008 -16.867298 -346.292339 22.056402 10.278236
13.364616 50.775112 39.523792 750.846029 21.905346 -12.982566 -0.637404 0.831601 5.390099 -29.596060 33.987390 12.841043 0.000002 0.000001 4.429893 13.665877 -5.829937 -0.047347 -0.000007 -0.000003 10.301395 349.877396 20.040152 -5.432244 0.000001 -0.000005 2.173897 -359.743058 3.609939 0.542917 2.142397 -0.572697 5.717799 -18.726746 10.910438 -6.849901 5.674000 0.000000 -0.000004 119.559388 182.350860 96.431227 -0.000003 -0.000009 -12.238698 219.272309 -519.057221 -153.151925 0.000008 0.000008 -10.253702 -124.014392 20.878244 -48.969967 -2.882599 -1.580093 6.695791 9.746044 15.325782 -18.604978 -4.235607 0.000003 -0.000005 20.218707 6.588709 92.513123 0.000009 0.000010 -10.709903 -23.137320 -23.356266 -21.756359 -0.000002 -0.000002 -11.716799 -275.250067 20.687422 63.013488 2.279496 0.210414 -2.475500 433.780752 -44.094861 64.732592 -0.000005 -0.000011 -20.742802 -148.341477 0.804376 70.314045 -0.000003 0.000003 -16.666000 77.893342 11.695806 40.591217 -1.961900 0.232302 -2.727398 -452.205405 -44.472885 -39.210405 0.000006 -0.000006 -20.526806 615.627080 116.385713 -169.961007 -0.000000 -0.000000 -16.867298 -345.702676 22.798576 10.087630
13.535610 50.759003 39.563293 750.525447 21.965221 -12.716871 -0.637402 0.831593 5.390095 -29.204147 34.131855 12.608608 -0.000002 0.000001 4.429897 13.427860 -5.869380 -0.060359 -0.000003 -0.000006 10.301399 349.826962 20.007752 -5.355794 0.000000 -0.000002 2.173903 -359.684674 3.654488 0.554639 2.142392 -0.572694 5.717803 -18.665732 10.908666 -6.903957 5.674000 0.000014 0.000001 119.477193 182.445500 96.462133 -0.000007 -0.000005 -12.238696 218.783936 -518.894826 -153.353893 0.000004 0.000000 -10.253704 -123.500339 20.825575 -48.924625 -2.882598 -1.580088 6.695790 9.784892 15.237146 -18.687232 -4.235609 -0.000002 0.000004 20.178860 6.763312 92.571056 0.000001 -0.000004 -10.709907 -23.154290 -23.363518 -21.730131 -0.000001 -0.000001 -11.716803 -275.286786 20.681405 62.863306 2.279495 0.210399 -2.475508 433.765534 -44.101469 64.667500 0.000005 -0.000004 -20.742807 -148.655843 0.321989 70.462315 -0.000006 0.000005 -16.665998 78.485185 11.532537 41.066465 -1.961902 0.232295 -2.727406 -452.018258 -44.469412 -39.024781 0.000008 -0.000010 -20.526796 614.583864 116.859797 -169.252443 -0.000001 0.000000 -16.867298 -344.982091 23.443410 9.877606
13.706806 50.741501 39.597794 750.242896 22.029238 -12.491294 -0.637409 0.831594 5.390092 -28.857238 34.231122 12.411790 -0.000002 0.000002 4.429900 13.179483 -5.907102 -0.074955 -0.000003 0.000000 10.301391 349.842699 19.991469 -5.326517 -0.000000 0.000003 2.173898 -359.642190 3.672248 0.544727 2.142400 -0.572699 5.717801 -18.628958 10.935708 -6.878489 5.674000 0.000006 -0.000001 119.432059 182.388331 96.421036 0.000003 0.000001 -12.238699 218.645530 -518.878980 -153.416799 0.000005 0.000004 -10.253708 -123.285324 20.709410 -48.822025 -2.882595 -1.580091 6.695791 9.945526 15.247006 -18.856312 -4.235599 -0.000005 -0.000001 20.078511 6.795546 92.713855 0.000000 0.000004 -10.709899 -23.046860 -23.392850 -21.677567 -0.000010 -0.000001 -11.716797 -275.426395 20.685132 62.791227 2.279500 0.210397 -2.475503 433.780451 -44.046097 64.662098 -0.000001 -0.000012 -20.742807 -149.115966 -0.338287 70.567875 -0.000003 -0.000005 -16.665998 79.223405 11.376028 41.677200 -1.961898 0.232291 -2.727398 -452.035771 -44.436350 -38.979244 0.000005 0.000004 -20.526796 614.026794 117.259499 -168.879146 -0.000008 -0.000008 -16.867306 -344.407617 24.062219 9.677573
13.880116 50.720509 39.626492 749.938378 22.096412 -12.281882 -0.637404 0.831597 5.390096 -28.505774 34.279203 12.265982 -0.000001 0.000003 4.429896 12.959228 -5.952355 -0.089213 -0.000001 0.000001 10.301407 349.917476 20.013612 -5.356695 0.000008 -0.000004 2.173889 -359.641152 3.675306 0.507815 2.142398 -0.572694 5.717813 -18.632790 10.982000 -6.803981 5.674001 0.000002 0.000004 119.392103 182.234078 96.375287 0.000001 -0.000005 -12.238688 218.352528 -518.779314 -153.584972 0.000002 0.000003 -10.253700 -122.873573 20.608542 -48.714395 -2.882601 -1.580095 6.695810 10.099978 15.255070 -19.081286 -4.235609 0.000003 -0.000005 19.963342 6.770149 92.863675 0.000001 0.000009 -10.709901 -22.897526 -23.418637 -21.652485 0.000002 -0.000001 -11.716791 -275.543765 20.654374 62.721962 2.279504 0.210411 -2.475507 433.828973 -43.957503 64.679535 -0.000003 -0.000014 -20.742805 -149.614706 -1.060292 70.723624 -0.000006 -0.000002 -16.665998 80.102833 11.200259 42.327960 -1.961889 0.232303 -2.727407 -452.075905 -44.423199 -38.976891 0.000004 -0.000006 -20.526796 613.340059 117.666592 -168.391661 0.000003 0.000001 -16.867300 -343.750717 24.715321 9.436077
14.057407 50.696003 39.651791 749.660198 22.164978 -12.101932 -0.637406 0.831597 5.390108 -28.187376 34.275914 12.146174 -0.000003 0.000002 4.429904 12.753474 -5.988683 -0.100971 -0.000009 0.000003 10.301394 350.022442 20.040701 -5.407229 -0.000003 -0.000005 2.173910 -359.667653 3.678045 0.473967 2.142397 -0.572693 5.717812 -18.647981 11.030170 -6.775347 5.674003 0.000009 -0.000003 119.350152 182.113443 96.358635 0.000003 -0.000005 -12.238691 218.208452 -518.776363 -153.694720 0.000004 0.000003 -10.253708 -122.620528 20.509919 -48.626558 -2.882599 -1.580092 6.695801 10.164956 15.203161 -19.239630 -4.235605 0.000002 0.000004 19.893839 6.811478 92.923925 0.000000 0.000000 -10.709902 -22.692433 -23.490274 -21.632411 -0.000004 0.000004 -11.716801 -275.784515 20.649416 62.719216 2.279494 0.210405 -2.475502 433.898859 -43.821780 64.745098 -0.000001 -0.000003 -20.742811 -150.174017 -1.847323 70.892268 -0.000003 0.000006 -16.666000 80.952024 10.977716 42.965134 -1.961903 0.232297 -2.727397 -452.241360 -44.401765 -39.047888 0.000009 -0.000003 -20.526802 612.194008 118.166985 -167.483601 -0.000000 -0.000001 -16.867304 -342.751542 25.460464 9.091071
14.237202 50.669304 39.674690 749.410651 22.229107 -11.963112 -0.637393 0.831604 5.390091 -27.915682 34.230784 12.083009 0.000002 -0.000000 4.429900 12.558648 -6.018561 -0.114511 -0.000006 -0.000003 10.301399 350.192869 20.075575 -5.512716 0.000002 0.000001 2.173901 -359.743113 3.694367 0.448784 2.142397 -0.572695 5.717801 -18.686257 11.070973 -6.709118 5.674006 0.000002 0.000001 119.308993 181.929397 96.318249 -0.000001 -0.000002 -12.238691 218.250389 -518.851222 -153.741124 0.000007 0.000007 -10.253702 -122.555669 20.485226 -48.545911 -2.882603 -1.580099 6.695798 10.240299 15.196049 -19.375121 -4.235607 -0.000006 -0.000008 19.830708 6.796097 92.931158 0.000007 0.000002 -10.709910 -22.507787 -23.555934 -21.620397 -0.000007 -0.000002 -11.716808 -276.082421 20.655708 62.882669 2.279502 0.210409 -2.475508 433.948802 -43.666475 64.831090 -0.000003 -0.000010 -20.742805 -150.728806 -2.664020 71.076171 -0.000005 0.000000 -16.665995 81.839716 10.748025 43.572966 -1.961891 0.232300 -2.727394 -452.638877 -44.332719 -39.244020 0.000007 -0.000007 -20.526793 611.157185 118.695178 -166.590868 0.000005 0.000005 -16.867302 -341.739335 26.236493 8.853404
14.423210 50.639301 39.693493 749.134711 22.239058 -11.848526 -0.637398 0.831597 5.390099 -27.671045 34.198993 12.104030 -0.000002 0.000014 4.429901 12.355775 -6.039287 -0.129179 0.000007 -0.000002 10.301389 350.421790 20.093187 -5.659769 0.000004 0.000009 2.173902 -359.844746 3.699026 0.442540 2.142401 -0.572702 5.717796 -18.690516 11.071848 -6.688665 5.674001 0.000007 -0.000002 119.233233 181.794419 96.339135 0.000003 -0.000007 -12.238703 218.396405 -518.970286 -153.765084 0.000008 0.000007 -10.253700 -122.658450 20.490518 -48.461090 -2.882596 -1.580095 6.695788 10.248777 15.155300 -19.447927 -4.235604 0.000002 0.000002 19.850172 6.887395 92.837099 -0.000002 0.000001 -10.709907 -22.445555 -23.607564 -21.583791 -0.000003 0.000000 -11.716803 -276.340902 20.669177 63.082288 2.279503 0.210404 -2.475500 433.918476 -43.487316 64.829348 -0.000008 -0.000010 -20.742798 -151.180295 -3.411631 71.250266 -0.000003 -0.000002 -16.666000 82.684358 10.545705 44.094007 -1.961889 0.232300 -2.727401 -452.940552 -44.346062 -39.319569 0.000003 -0.000007 -20.526798 609.931959 119.288885 -165.608072 0.000004 0.000011 -16.867300 -340.550800 27.052241 8.497124
